<mxfile host="app.diagrams.net" modified="2022-04-20T16:57:05.976Z" agent="5.0 (Windows NT 10.0; Win64; x64) AppleWebKit/537.36 (KHTML, like Gecko) Chrome/100.0.4896.127 Safari/537.36" etag="ZFW5pl2MD7OD8CIRxU1_" version="17.4.5" type="github">
  <diagram id="mqtwKgHRLnJq7YjzRvvf" name="第 1 页">
    <mxGraphModel dx="1221" dy="622" grid="1" gridSize="10" guides="1" tooltips="1" connect="1" arrows="1" fold="1" page="1" pageScale="1" pageWidth="100" pageHeight="100" math="0" shadow="0">
      <root>
        <mxCell id="0" />
        <mxCell id="1" parent="0" />
        <mxCell id="-MCLap8j8SfnB-G9OxMJ-39" value="" style="rounded=0;whiteSpace=wrap;html=1;sketch=0;fontSize=24;fillColor=none;glass=1;" vertex="1" parent="1">
          <mxGeometry x="15" y="7" width="765" height="610" as="geometry" />
        </mxCell>
        <mxCell id="-MCLap8j8SfnB-G9OxMJ-35" value="" style="rounded=1;whiteSpace=wrap;html=1;sketch=0;fontSize=24;fillColor=none;dashed=1;strokeWidth=2;" vertex="1" parent="1">
          <mxGeometry x="50" y="250" width="700" height="308" as="geometry" />
        </mxCell>
        <mxCell id="JPeQPMN4TfNnXQcviVus-1" value="" style="ellipse;whiteSpace=wrap;html=1;aspect=fixed;" parent="1" vertex="1">
          <mxGeometry x="97" y="351" width="37" height="37" as="geometry" />
        </mxCell>
        <mxCell id="JPeQPMN4TfNnXQcviVus-2" value="" style="rhombus;whiteSpace=wrap;html=1;" parent="1" vertex="1">
          <mxGeometry x="96" y="504" width="42.5" height="40" as="geometry" />
        </mxCell>
        <mxCell id="JPeQPMN4TfNnXQcviVus-3" value="&lt;font style=&quot;font-size: 24px&quot;&gt;分子图&lt;/font&gt;" style="rounded=0;whiteSpace=wrap;html=1;" parent="1" vertex="1">
          <mxGeometry x="210" y="159" width="110" height="40" as="geometry" />
        </mxCell>
        <mxCell id="JPeQPMN4TfNnXQcviVus-4" value="&lt;font style=&quot;font-size: 24px&quot;&gt;相似网络&lt;/font&gt;" style="rounded=0;whiteSpace=wrap;html=1;" parent="1" vertex="1">
          <mxGeometry x="210" y="349" width="110" height="40" as="geometry" />
        </mxCell>
        <mxCell id="JPeQPMN4TfNnXQcviVus-5" value="&lt;font style=&quot;font-size: 24px&quot;&gt;签名&lt;/font&gt;" style="rounded=0;whiteSpace=wrap;html=1;" parent="1" vertex="1">
          <mxGeometry x="212" y="430" width="110" height="40" as="geometry" />
        </mxCell>
        <mxCell id="JPeQPMN4TfNnXQcviVus-6" value="&lt;span style=&quot;font-size: 24px&quot;&gt;自然语言&lt;/span&gt;" style="rounded=0;whiteSpace=wrap;html=1;" parent="1" vertex="1">
          <mxGeometry x="212" y="502" width="110" height="40" as="geometry" />
        </mxCell>
        <mxCell id="JPeQPMN4TfNnXQcviVus-11" value="GCN" style="whiteSpace=wrap;html=1;aspect=fixed;fontSize=24;" parent="1" vertex="1">
          <mxGeometry x="440" y="319" width="80" height="80" as="geometry" />
        </mxCell>
        <mxCell id="JPeQPMN4TfNnXQcviVus-15" value="" style="endArrow=classic;html=1;rounded=0;fontSize=24;exitX=1;exitY=0.5;exitDx=0;exitDy=0;" parent="1" source="JPeQPMN4TfNnXQcviVus-2" edge="1">
          <mxGeometry width="50" height="50" relative="1" as="geometry">
            <mxPoint x="150" y="535" as="sourcePoint" />
            <mxPoint x="210" y="525" as="targetPoint" />
          </mxGeometry>
        </mxCell>
        <mxCell id="JPeQPMN4TfNnXQcviVus-18" value="" style="endArrow=classic;html=1;rounded=0;fontSize=24;exitX=1;exitY=0.5;exitDx=0;exitDy=0;entryX=0.015;entryY=0.593;entryDx=0;entryDy=0;entryPerimeter=0;" parent="1" source="JPeQPMN4TfNnXQcviVus-4" target="JPeQPMN4TfNnXQcviVus-11" edge="1">
          <mxGeometry width="50" height="50" relative="1" as="geometry">
            <mxPoint x="350" y="452" as="sourcePoint" />
            <mxPoint x="400" y="402" as="targetPoint" />
          </mxGeometry>
        </mxCell>
        <mxCell id="JPeQPMN4TfNnXQcviVus-19" value="" style="endArrow=classic;html=1;rounded=0;fontSize=24;exitX=1;exitY=0.5;exitDx=0;exitDy=0;entryX=0;entryY=0.75;entryDx=0;entryDy=0;" parent="1" source="JPeQPMN4TfNnXQcviVus-5" target="JPeQPMN4TfNnXQcviVus-11" edge="1">
          <mxGeometry width="50" height="50" relative="1" as="geometry">
            <mxPoint x="390" y="572" as="sourcePoint" />
            <mxPoint x="440" y="522" as="targetPoint" />
          </mxGeometry>
        </mxCell>
        <mxCell id="JPeQPMN4TfNnXQcviVus-20" value="" style="endArrow=classic;html=1;rounded=0;fontSize=24;exitX=1;exitY=0.5;exitDx=0;exitDy=0;entryX=0;entryY=0.75;entryDx=0;entryDy=0;" parent="1" source="JPeQPMN4TfNnXQcviVus-6" target="JPeQPMN4TfNnXQcviVus-11" edge="1">
          <mxGeometry width="50" height="50" relative="1" as="geometry">
            <mxPoint x="370" y="552" as="sourcePoint" />
            <mxPoint x="420" y="502" as="targetPoint" />
          </mxGeometry>
        </mxCell>
        <mxCell id="JPeQPMN4TfNnXQcviVus-22" value="药物" style="text;html=1;resizable=0;autosize=1;align=center;verticalAlign=middle;points=[];fillColor=none;strokeColor=none;rounded=0;fontSize=24;" parent="1" vertex="1">
          <mxGeometry x="85.5" y="169" width="60" height="30" as="geometry" />
        </mxCell>
        <mxCell id="JPeQPMN4TfNnXQcviVus-24" value="不良反应" style="text;html=1;resizable=0;autosize=1;align=center;verticalAlign=middle;points=[];fillColor=none;strokeColor=none;rounded=0;fontSize=24;" parent="1" vertex="1">
          <mxGeometry x="68.75" y="472" width="110" height="30" as="geometry" />
        </mxCell>
        <mxCell id="JPeQPMN4TfNnXQcviVus-26" value="（0,1）" style="text;html=1;resizable=0;autosize=1;align=center;verticalAlign=middle;points=[];fillColor=none;strokeColor=none;rounded=0;fontSize=24;" parent="1" vertex="1">
          <mxGeometry x="620" y="344" width="100" height="30" as="geometry" />
        </mxCell>
        <mxCell id="-MCLap8j8SfnB-G9OxMJ-1" value="&lt;font style=&quot;font-size: 24px&quot;&gt;DNN&lt;/font&gt;" style="whiteSpace=wrap;html=1;aspect=fixed;rounded=0;sketch=0;" vertex="1" parent="1">
          <mxGeometry x="440" y="91" width="80" height="80" as="geometry" />
        </mxCell>
        <mxCell id="-MCLap8j8SfnB-G9OxMJ-2" value="&lt;span style=&quot;font-size: 24px&quot;&gt;分子指纹&lt;/span&gt;" style="rounded=0;whiteSpace=wrap;html=1;" vertex="1" parent="1">
          <mxGeometry x="210" y="78" width="110" height="40" as="geometry" />
        </mxCell>
        <mxCell id="-MCLap8j8SfnB-G9OxMJ-3" value="" style="endArrow=classic;html=1;rounded=1;sketch=0;fontSize=24;curved=0;entryX=0;entryY=0.5;entryDx=0;entryDy=0;exitX=1;exitY=0.5;exitDx=0;exitDy=0;" edge="1" parent="1" source="-MCLap8j8SfnB-G9OxMJ-25" target="-MCLap8j8SfnB-G9OxMJ-2">
          <mxGeometry width="50" height="50" relative="1" as="geometry">
            <mxPoint x="100" y="118" as="sourcePoint" />
            <mxPoint x="190" y="148" as="targetPoint" />
          </mxGeometry>
        </mxCell>
        <mxCell id="-MCLap8j8SfnB-G9OxMJ-4" value="" style="endArrow=classic;html=1;rounded=1;sketch=0;fontSize=24;curved=0;exitX=1;exitY=0.5;exitDx=0;exitDy=0;entryX=0;entryY=0.5;entryDx=0;entryDy=0;" edge="1" parent="1" source="-MCLap8j8SfnB-G9OxMJ-25" target="JPeQPMN4TfNnXQcviVus-3">
          <mxGeometry width="50" height="50" relative="1" as="geometry">
            <mxPoint x="130" y="278" as="sourcePoint" />
            <mxPoint x="180" y="228" as="targetPoint" />
          </mxGeometry>
        </mxCell>
        <mxCell id="-MCLap8j8SfnB-G9OxMJ-5" value="" style="endArrow=classic;html=1;rounded=1;sketch=0;fontSize=24;curved=0;exitX=1;exitY=0.5;exitDx=0;exitDy=0;entryX=0;entryY=0.5;entryDx=0;entryDy=0;" edge="1" parent="1" source="JPeQPMN4TfNnXQcviVus-1" target="JPeQPMN4TfNnXQcviVus-4">
          <mxGeometry width="50" height="50" relative="1" as="geometry">
            <mxPoint x="150" y="382" as="sourcePoint" />
            <mxPoint x="200" y="332" as="targetPoint" />
          </mxGeometry>
        </mxCell>
        <mxCell id="-MCLap8j8SfnB-G9OxMJ-6" value="" style="endArrow=classic;html=1;rounded=1;sketch=0;fontSize=24;curved=0;exitX=1;exitY=1;exitDx=0;exitDy=0;" edge="1" parent="1" source="JPeQPMN4TfNnXQcviVus-1">
          <mxGeometry width="50" height="50" relative="1" as="geometry">
            <mxPoint x="150" y="452" as="sourcePoint" />
            <mxPoint x="210" y="452" as="targetPoint" />
          </mxGeometry>
        </mxCell>
        <mxCell id="-MCLap8j8SfnB-G9OxMJ-7" value="" style="endArrow=classic;html=1;rounded=1;sketch=0;fontSize=24;curved=0;exitX=1;exitY=0.5;exitDx=0;exitDy=0;entryX=0;entryY=0.5;entryDx=0;entryDy=0;" edge="1" parent="1" source="-MCLap8j8SfnB-G9OxMJ-2" target="-MCLap8j8SfnB-G9OxMJ-1">
          <mxGeometry width="50" height="50" relative="1" as="geometry">
            <mxPoint x="350" y="128" as="sourcePoint" />
            <mxPoint x="400" y="78" as="targetPoint" />
          </mxGeometry>
        </mxCell>
        <mxCell id="-MCLap8j8SfnB-G9OxMJ-8" value="" style="endArrow=classic;html=1;rounded=1;sketch=0;fontSize=24;curved=0;entryX=0;entryY=0.5;entryDx=0;entryDy=0;" edge="1" parent="1" target="-MCLap8j8SfnB-G9OxMJ-1">
          <mxGeometry width="50" height="50" relative="1" as="geometry">
            <mxPoint x="320" y="178" as="sourcePoint" />
            <mxPoint x="390" y="148" as="targetPoint" />
          </mxGeometry>
        </mxCell>
        <mxCell id="-MCLap8j8SfnB-G9OxMJ-9" value="数据集" style="text;html=1;resizable=0;autosize=1;align=center;verticalAlign=middle;points=[];fillColor=none;strokeColor=none;rounded=0;sketch=0;fontSize=24;" vertex="1" parent="1">
          <mxGeometry x="78.75" y="583" width="90" height="30" as="geometry" />
        </mxCell>
        <mxCell id="-MCLap8j8SfnB-G9OxMJ-10" value="特征提取方法" style="text;html=1;resizable=0;autosize=1;align=center;verticalAlign=middle;points=[];fillColor=none;strokeColor=none;rounded=0;sketch=0;fontSize=24;" vertex="1" parent="1">
          <mxGeometry x="199" y="583" width="160" height="30" as="geometry" />
        </mxCell>
        <mxCell id="-MCLap8j8SfnB-G9OxMJ-11" value="模型" style="text;html=1;resizable=0;autosize=1;align=center;verticalAlign=middle;points=[];fillColor=none;strokeColor=none;rounded=0;sketch=0;fontSize=24;" vertex="1" parent="1">
          <mxGeometry x="452" y="582" width="60" height="30" as="geometry" />
        </mxCell>
        <mxCell id="-MCLap8j8SfnB-G9OxMJ-12" value="预测" style="text;html=1;resizable=0;autosize=1;align=center;verticalAlign=middle;points=[];fillColor=none;strokeColor=none;rounded=0;sketch=0;fontSize=24;" vertex="1" parent="1">
          <mxGeometry x="620" y="581" width="60" height="30" as="geometry" />
        </mxCell>
        <mxCell id="-MCLap8j8SfnB-G9OxMJ-13" value="" style="shape=orEllipse;perimeter=ellipsePerimeter;whiteSpace=wrap;html=1;backgroundOutline=1;rounded=0;sketch=0;fontSize=24;" vertex="1" parent="1">
          <mxGeometry x="570" y="344" width="30" height="32" as="geometry" />
        </mxCell>
        <mxCell id="-MCLap8j8SfnB-G9OxMJ-14" value="" style="endArrow=classic;html=1;rounded=1;sketch=0;fontSize=24;curved=0;exitX=1;exitY=0;exitDx=0;exitDy=0;entryX=0;entryY=0;entryDx=0;entryDy=0;" edge="1" parent="1" source="JPeQPMN4TfNnXQcviVus-11" target="-MCLap8j8SfnB-G9OxMJ-13">
          <mxGeometry width="50" height="50" relative="1" as="geometry">
            <mxPoint x="560" y="328" as="sourcePoint" />
            <mxPoint x="610" y="278" as="targetPoint" />
          </mxGeometry>
        </mxCell>
        <mxCell id="-MCLap8j8SfnB-G9OxMJ-15" value="" style="endArrow=classic;html=1;rounded=1;sketch=0;fontSize=24;curved=0;exitX=1;exitY=0.5;exitDx=0;exitDy=0;entryX=0;entryY=0.5;entryDx=0;entryDy=0;" edge="1" parent="1" source="JPeQPMN4TfNnXQcviVus-11" target="-MCLap8j8SfnB-G9OxMJ-13">
          <mxGeometry width="50" height="50" relative="1" as="geometry">
            <mxPoint x="540" y="449" as="sourcePoint" />
            <mxPoint x="590" y="399" as="targetPoint" />
          </mxGeometry>
        </mxCell>
        <mxCell id="-MCLap8j8SfnB-G9OxMJ-16" value="" style="endArrow=classic;html=1;rounded=1;sketch=0;fontSize=24;curved=0;exitX=1;exitY=1;exitDx=0;exitDy=0;entryX=0;entryY=1;entryDx=0;entryDy=0;" edge="1" parent="1" source="JPeQPMN4TfNnXQcviVus-11" target="-MCLap8j8SfnB-G9OxMJ-13">
          <mxGeometry width="50" height="50" relative="1" as="geometry">
            <mxPoint x="540" y="428" as="sourcePoint" />
            <mxPoint x="590" y="378" as="targetPoint" />
          </mxGeometry>
        </mxCell>
        <mxCell id="-MCLap8j8SfnB-G9OxMJ-17" value="" style="endArrow=classic;html=1;rounded=1;sketch=0;fontSize=24;curved=0;exitX=1;exitY=0.5;exitDx=0;exitDy=0;" edge="1" parent="1" source="-MCLap8j8SfnB-G9OxMJ-13">
          <mxGeometry width="50" height="50" relative="1" as="geometry">
            <mxPoint x="620" y="448" as="sourcePoint" />
            <mxPoint x="640" y="360" as="targetPoint" />
          </mxGeometry>
        </mxCell>
        <mxCell id="-MCLap8j8SfnB-G9OxMJ-18" value="" style="shape=orEllipse;perimeter=ellipsePerimeter;whiteSpace=wrap;html=1;backgroundOutline=1;rounded=0;sketch=0;fontSize=24;" vertex="1" parent="1">
          <mxGeometry x="570" y="114" width="30" height="32" as="geometry" />
        </mxCell>
        <mxCell id="-MCLap8j8SfnB-G9OxMJ-19" value="" style="endArrow=classic;html=1;rounded=1;sketch=0;fontSize=24;curved=0;exitX=1;exitY=1;exitDx=0;exitDy=0;entryX=0;entryY=1;entryDx=0;entryDy=0;" edge="1" parent="1" source="-MCLap8j8SfnB-G9OxMJ-1" target="-MCLap8j8SfnB-G9OxMJ-18">
          <mxGeometry width="50" height="50" relative="1" as="geometry">
            <mxPoint x="530" y="178" as="sourcePoint" />
            <mxPoint x="580" y="128" as="targetPoint" />
          </mxGeometry>
        </mxCell>
        <mxCell id="-MCLap8j8SfnB-G9OxMJ-20" value="" style="endArrow=classic;html=1;rounded=1;sketch=0;fontSize=24;curved=0;exitX=1;exitY=0;exitDx=0;exitDy=0;entryX=0;entryY=0;entryDx=0;entryDy=0;" edge="1" parent="1" source="-MCLap8j8SfnB-G9OxMJ-1" target="-MCLap8j8SfnB-G9OxMJ-18">
          <mxGeometry width="50" height="50" relative="1" as="geometry">
            <mxPoint x="550" y="78" as="sourcePoint" />
            <mxPoint x="600" y="28" as="targetPoint" />
          </mxGeometry>
        </mxCell>
        <mxCell id="-MCLap8j8SfnB-G9OxMJ-21" value="" style="endArrow=classic;html=1;rounded=1;sketch=0;fontSize=24;curved=0;exitX=1;exitY=0.5;exitDx=0;exitDy=0;" edge="1" parent="1" source="-MCLap8j8SfnB-G9OxMJ-18">
          <mxGeometry width="50" height="50" relative="1" as="geometry">
            <mxPoint x="670" y="180" as="sourcePoint" />
            <mxPoint x="640" y="130" as="targetPoint" />
          </mxGeometry>
        </mxCell>
        <mxCell id="-MCLap8j8SfnB-G9OxMJ-22" value="（0,1,...,1）" style="text;html=1;resizable=0;autosize=1;align=center;verticalAlign=middle;points=[];fillColor=none;strokeColor=none;rounded=0;fontSize=24;" vertex="1" parent="1">
          <mxGeometry x="620" y="114" width="140" height="30" as="geometry" />
        </mxCell>
        <mxCell id="-MCLap8j8SfnB-G9OxMJ-25" value="" style="ellipse;whiteSpace=wrap;html=1;aspect=fixed;" vertex="1" parent="1">
          <mxGeometry x="95.5" y="121" width="37" height="37" as="geometry" />
        </mxCell>
        <mxCell id="-MCLap8j8SfnB-G9OxMJ-26" value="药物" style="text;html=1;resizable=0;autosize=1;align=center;verticalAlign=middle;points=[];fillColor=none;strokeColor=none;rounded=0;fontSize=24;" vertex="1" parent="1">
          <mxGeometry x="85.5" y="406" width="60" height="30" as="geometry" />
        </mxCell>
        <mxCell id="-MCLap8j8SfnB-G9OxMJ-29" value="&lt;font style=&quot;font-size: 24px&quot;&gt;分子图&lt;/font&gt;" style="rounded=0;whiteSpace=wrap;html=1;" vertex="1" parent="1">
          <mxGeometry x="210" y="268" width="110" height="40" as="geometry" />
        </mxCell>
        <mxCell id="-MCLap8j8SfnB-G9OxMJ-30" value="" style="endArrow=classic;html=1;rounded=1;sketch=0;fontSize=24;curved=0;exitX=1;exitY=0;exitDx=0;exitDy=0;entryX=0;entryY=0.5;entryDx=0;entryDy=0;" edge="1" parent="1" source="JPeQPMN4TfNnXQcviVus-1" target="-MCLap8j8SfnB-G9OxMJ-29">
          <mxGeometry width="50" height="50" relative="1" as="geometry">
            <mxPoint x="130" y="348" as="sourcePoint" />
            <mxPoint x="200" y="298" as="targetPoint" />
          </mxGeometry>
        </mxCell>
        <mxCell id="-MCLap8j8SfnB-G9OxMJ-32" value="" style="shape=flexArrow;endArrow=classic;html=1;rounded=1;sketch=0;fontSize=24;curved=0;entryX=0.5;entryY=0;entryDx=0;entryDy=0;" edge="1" parent="1">
          <mxGeometry width="50" height="50" relative="1" as="geometry">
            <mxPoint x="265" y="205" as="sourcePoint" />
            <mxPoint x="265" y="265" as="targetPoint" />
          </mxGeometry>
        </mxCell>
        <mxCell id="-MCLap8j8SfnB-G9OxMJ-33" value="" style="endArrow=classic;html=1;rounded=1;sketch=0;fontSize=24;curved=0;exitX=1;exitY=0.5;exitDx=0;exitDy=0;entryX=-0.055;entryY=0.375;entryDx=0;entryDy=0;entryPerimeter=0;" edge="1" parent="1" source="-MCLap8j8SfnB-G9OxMJ-29" target="JPeQPMN4TfNnXQcviVus-11">
          <mxGeometry width="50" height="50" relative="1" as="geometry">
            <mxPoint x="460" y="298" as="sourcePoint" />
            <mxPoint x="510" y="248" as="targetPoint" />
          </mxGeometry>
        </mxCell>
        <mxCell id="-MCLap8j8SfnB-G9OxMJ-34" value="" style="rounded=1;whiteSpace=wrap;html=1;sketch=0;fontSize=24;fillColor=none;dashed=1;strokeWidth=2;" vertex="1" parent="1">
          <mxGeometry x="50" y="40" width="700" height="190" as="geometry" />
        </mxCell>
        <mxCell id="-MCLap8j8SfnB-G9OxMJ-37" value="&lt;font face=&quot;Times New Roman&quot; style=&quot;font-size: 20px&quot;&gt;药物不良反应的多标签任务&lt;/font&gt;" style="text;html=1;resizable=0;autosize=1;align=center;verticalAlign=middle;points=[];fillColor=none;strokeColor=none;rounded=0;sketch=0;fontSize=24;" vertex="1" parent="1">
          <mxGeometry x="485" y="44" width="260" height="40" as="geometry" />
        </mxCell>
        <mxCell id="-MCLap8j8SfnB-G9OxMJ-38" value="&lt;font style=&quot;font-size: 20px&quot;&gt;药物不良反应的二分类任务&lt;/font&gt;" style="text;html=1;resizable=0;autosize=1;align=center;verticalAlign=middle;points=[];fillColor=none;strokeColor=none;rounded=0;sketch=0;fontSize=24;" vertex="1" parent="1">
          <mxGeometry x="485" y="268" width="260" height="40" as="geometry" />
        </mxCell>
      </root>
    </mxGraphModel>
  </diagram>
</mxfile>
